HIERARCHY
ROOT Hips
{
	OFFSET 0.000000 0.000000 0.000000
	CHANNELS 6 Xposition Yposition Zposition Zrotation Yrotation Xrotation 
	JOINT LowerBack
	{
		OFFSET 0.000000 0.000000 0.000000
		CHANNELS 3 Zrotation Yrotation Xrotation
		JOINT Spine
		{
			OFFSET 0.028270 2.035590 -0.193380
			CHANNELS 3 Zrotation Yrotation Xrotation
			JOINT Spine1
			{
				OFFSET 0.056720 2.048850 -0.042750
				CHANNELS 3 Zrotation Yrotation Xrotation
				JOINT Neck
				{
					OFFSET 0.000000 0.000000 0.000000
					CHANNELS 3 Zrotation Yrotation Xrotation
					JOINT Neck1
					{
						OFFSET -0.054170 1.746240 0.172020
						CHANNELS 3 Zrotation Yrotation Xrotation
						JOINT Head
						{
							OFFSET 0.104070 1.761360 -0.123970
							CHANNELS 3 Zrotation Yrotation Xrotation
							End Site
							{
								OFFSET 0.000000 0.000000 0.000000
							}
						}
					}
				}
				JOINT LeftShoulder
				{
					OFFSET 0.000000 0.000000 0.000000
					CHANNELS 3 Zrotation Yrotation Xrotation
					JOINT LeftArm
					{
						OFFSET 3.362410 1.200890 -0.311210
						CHANNELS 3 Zrotation Yrotation Xrotation
						JOINT LeftForeArm
						{
							OFFSET 4.983000 -0.000000 -0.000000
							CHANNELS 3 Zrotation Yrotation Xrotation
							JOINT LeftHand
							{
								OFFSET 3.483560 -0.000000 -0.000000
								CHANNELS 3 Zrotation Yrotation Xrotation
								JOINT LeftFingerBase
								{
									OFFSET 0.000000 0.000000 0.000000
									CHANNELS 3 Zrotation Yrotation Xrotation
									JOINT LeftHandIndex1
									{
										OFFSET 0.715260 -0.000000 -0.000000
										CHANNELS 3 Zrotation Yrotation Xrotation
										End Site
										{
											OFFSET 0.000000 0.000000 0.000000
										}
									}
								}
								JOINT LThumb
								{
									OFFSET 0.000000 0.000000 0.000000
									CHANNELS 3 Zrotation Yrotation Xrotation
									End Site
									{
										OFFSET 0.000000 0.000000 0.000000
									}
								}
							}
						}
					}
				}
				JOINT RightShoulder
				{
					OFFSET 0.000000 0.000000 0.000000
					CHANNELS 3 Zrotation Yrotation Xrotation
					JOINT RightArm
					{
						OFFSET -3.136600 1.374050 -0.404650
						CHANNELS 3 Zrotation Yrotation Xrotation
						JOINT RightForeArm
						{
							OFFSET -5.241900 -0.000000 -0.000000
							CHANNELS 3 Zrotation Yrotation Xrotation
							JOINT RightHand
							{
								OFFSET -3.444170 -0.000000 -0.000000
								CHANNELS 3 Zrotation Yrotation Xrotation
								JOINT RightFingerBase
								{
									OFFSET 0.000000 0.000000 0.000000
									CHANNELS 3 Zrotation Yrotation Xrotation
									JOINT RightHandIndex1
									{
										OFFSET -0.622530 -0.000000 -0.000000
										CHANNELS 3 Zrotation Yrotation Xrotation
										End Site
										{
											OFFSET 0.000000 0.000000 0.000000
										}
									}
								}
								JOINT RThumb
								{
									OFFSET 0.000000 0.000000 0.000000
									CHANNELS 3 Zrotation Yrotation Xrotation
									End Site
									{
										OFFSET 0.000000 0.000000 0.000000
									}
								}
							}
						}
					}
				}
			}
		}
	}
}
}
MOTION
Frames: 9
Frame Time: 0.008333
0.634057 16.758879 -0.336358 -13.206404 82.881296 17.908557 -5.996534 2.138967 8.168716 -1.694743 2.610885 -1.908478 -3.985411 2.663112 -2.067593 3.428518 -3.808125 -5.332965 -0.610698 -0.059678 0.268529 0.000000 0.000000 0.000000 6.032556 18.140696 1.583950 -66.850399 38.848682 22.734452 -179.410039 -70.743830 -179.995691 -2.350162 -3.249107 0.076454 0.128202 0.285065 -0.000000 0.000000 0.000000 0.000000 0.000000 0.000000 0.000000 -7.932949 4.267465 -2.534309 77.613793 15.549515 22.198836 179.461101 77.181288 179.999980 0.293942 10.850618 0.033890 -0.030437 -0.672001 -0.000000 0.000000 0.000000 0.000000 0.000000 0.000000 0.000000 
0.855529 16.692683 -0.348188 -13.581689 82.727900 17.542798 -6.184321 2.136538 8.194949 -1.715560 2.617714 -1.902868 -3.924938 2.671872 -2.066319 3.377043 -3.596302 -5.445638 -0.649067 -0.060187 0.232041 0.000000 0.000000 0.000000 5.788884 18.254634 1.688459 -67.928001 37.905552 21.565638 -179.417117 -70.511457 -179.996273 -2.082155 -3.270476 0.068727 0.123924 0.296272 -0.000000 0.000000 0.000000 0.000000 0.000000 0.000000 0.000000 -7.911274 4.546694 -2.507357 77.817923 15.151130 22.083832 179.475444 77.381211 -179.998278 0.606163 10.772657 0.065962 -0.040034 -0.667890 -0.000000 0.000000 0.000000 0.000000 0.000000 0.000000 0.000000 
1.073182 16.617592 -0.359495 -13.708208 82.578350 17.408211 -6.384952 2.123736 8.267188 -1.740443 2.614532 -1.893155 -3.875785 2.671136 -2.088884 3.337641 -3.340974 -5.546501 -0.703425 -0.061974 0.197170 0.000000 0.000000 0.000000 5.495111 18.316175 1.796421 -68.977185 36.871249 20.405556 -179.422829 -70.247183 -179.996878 -1.825761 -3.284845 0.061101 0.119933 0.307983 -0.000000 0.000000 0.000000 0.000000 0.000000 0.000000 0.000000 -7.822307 4.874553 -2.471851 78.029344 14.703581 21.866580 179.489875 77.550356 -179.996752 0.903140 10.709862 0.096135 -0.049799 -0.664823 -0.000000 0.000000 0.000000 0.000000 0.000000 0.000000 0.000000 
1.286813 16.534543 -0.370375 -13.704296 82.420385 17.382365 -6.587014 2.107487 8.386060 -1.767447 2.607645 -1.880082 -3.838277 2.667220 -2.138632 3.301420 -3.037999 -5.626496 -0.774094 -0.065221 0.166478 0.000000 0.000000 0.000000 5.144589 18.312845 1.903772 -69.986379 35.739366 19.271721 -179.426774 -69.960296 -179.997473 -1.585794 -3.285886 0.053775 0.116215 0.320023 -0.000000 0.000000 0.000000 0.000000 0.000000 0.000000 0.000000 -7.672251 5.255271 -2.426978 78.255053 14.200919 21.535883 179.505441 77.711085 -179.995400 1.190711 10.660239 0.125108 -0.059889 -0.662493 -0.000000 0.000000 0.000000 0.000000 0.000000 0.000000 0.000000 
1.496238 16.444798 -0.380864 -13.636333 82.245666 17.393745 -6.783043 2.094233 8.551674 -1.795481 2.602862 -1.864132 -3.812458 2.665923 -2.217534 3.260663 -2.687513 -5.675125 -0.861026 -0.070100 0.142947 0.000000 0.000000 0.000000 4.736705 18.227510 2.005818 -70.948465 34.499518 18.180487 -179.428923 -69.671625 -179.998034 -1.361438 -3.262326 0.046550 0.112586 0.332065 -0.000000 0.000000 0.000000 0.000000 0.000000 0.000000 0.000000 -7.464582 5.686596 -2.371032 78.503266 13.638744 21.083951 179.523529 77.896166 -179.994197 1.471844 10.620726 0.153482 -0.070329 -0.660465 -0.000000 0.000000 0.000000 0.000000 0.000000 0.000000 0.000000 
1.701375 16.349872 -0.390595 -13.471577 82.055943 17.470105 -6.978943 2.087004 8.763234 -1.825970 2.602917 -1.843816 -3.797654 2.669996 -2.319474 3.213334 -2.302967 -5.686108 -0.963525 -0.076639 0.128242 0.000000 0.000000 0.000000 4.292532 18.057011 2.098248 -71.861013 33.113645 17.161608 -179.430131 -69.422823 -179.998559 -1.143434 -3.197806 0.039028 0.108605 0.343668 -0.000000 0.000000 0.000000 0.000000 0.000000 0.000000 0.000000 -7.195110 6.148010 -2.303263 78.780182 13.029261 20.516113 179.545614 78.143712 -179.993180 1.739333 10.589565 0.180357 -0.080835 -0.658292 -0.000000 0.000000 0.000000 0.000000 0.000000 0.000000 0.000000 
1.902259 16.251474 -0.399462 -13.232425 81.853510 17.589652 -7.169386 2.089143 9.014269 -1.858093 2.610584 -1.820659 -3.793857 2.682062 -2.445050 3.155036 -1.886468 -5.647632 -1.080242 -0.084924 0.125915 0.000000 0.000000 0.000000 3.814359 17.780203 2.175284 -72.714087 31.574065 16.225641 -179.430096 -69.241972 -179.999086 -0.917600 -3.082458 0.031011 0.103654 0.354498 -0.000000 0.000000 0.000000 0.000000 0.000000 0.000000 0.000000 -6.867352 6.631053 -2.221751 79.094948 12.367117 19.829324 179.573245 78.489354 -179.992419 1.984344 10.565764 0.205029 -0.091141 -0.655565 -0.000000 0.000000 0.000000 0.000000 0.000000 0.000000 0.000000 
2.098983 16.151356 -0.407071 -12.870749 81.650511 17.801080 -7.360117 2.100158 9.298517 -1.892953 2.625205 -1.792822 -3.800184 2.701346 -2.582664 3.087977 -1.458404 -5.557584 -1.208710 -0.094765 0.136618 0.000000 0.000000 0.000000 3.327691 17.405918 2.231664 -73.499553 29.836106 15.406829 -179.429299 -69.180436 -179.999685 -0.665045 -2.903186 0.022203 0.096926 0.364152 -0.000000 0.000000 0.000000 0.000000 0.000000 0.000000 0.000000 -6.477889 7.103487 -2.127069 79.451916 11.669018 19.040026 179.607893 78.973281 -179.992083 2.182883 10.552076 0.225102 -0.100560 -0.651923 -0.000000 0.000000 0.000000 0.000000 0.000000 0.000000 0.000000 
2.291788 16.051356 -0.413263 -12.379971 81.458982 18.114788 -7.547654 2.119184 9.607085 -1.929877 2.645671 -1.761190 -3.816988 2.726522 -2.728896 3.013524 -1.025341 -5.409612 -1.346151 -0.106033 0.162492 0.000000 0.000000 0.000000 2.836907 16.925420 2.261932 -74.200670 27.892286 14.715620 -179.426838 -69.263319 179.999540 -0.368799 -2.657564 0.012707 0.087691 0.372455 -0.000000 0.000000 0.000000 0.000000 0.000000 0.000000 0.000000 -6.030063 7.549501 -2.018740 79.856363 10.932812 18.153419 179.650461 79.624120 -179.992368 2.309174 10.551811 0.238177 -0.108492 -0.647145 -0.000000 0.000000 0.000000 0.000000 0.000000 0.000000 0.000000 
